<?xml version="1.0" encoding="UTF-8" standalone="no"?>
<svg width="209px" height="205px" viewBox="0 0 209 205" version="1.1" xmlns="http://www.w3.org/2000/svg" xmlns:xlink="http://www.w3.org/1999/xlink" xmlns:sketch="http://www.bohemiancoding.com/sketch/ns">
    <!-- Generator: Sketch 3.0 (7574) - http://www.bohemiancoding.com/sketch -->
    <title>Imported Layers</title>
    <description>Created with Sketch.</description>
    <defs></defs>
    <g id="Page-1" stroke="none" stroke-width="1" fill="none" fill-rule="evenodd" sketch:type="MSPage">
        <g id="Acceuil" sketch:type="MSArtboardGroup" transform="translate(-529.000000, -531.000000)">
            <g id="logo" sketch:type="MSLayerGroup" transform="translate(519.000000, 518.000000)">
                <g id="Imported-Layers" transform="translate(10.000000, 13.000000)" sketch:type="MSShapeGroup">
                    <path d="M103,197.269934 C50.6143485,197.269934 8.14691473,154.842378 8.14691473,102.505918 C8.14691473,50.1694582 50.6143485,7.74190246 103,7.74190246 L103,0.00377183103 C101.276962,-0.0391810717 99.701093,0.286269768 98.3005044,0.900826684 C96.7758967,1.32705164 95.251289,1.75492863 93.7266814,2.18115359 C91.8878921,2.69658843 86.6460198,3.23515174 88.9329313,3.3805308 C83.5686935,3.18889477 76.7112662,2.42235066 72.2862661,5.11186319 C70.5103131,6.19064186 68.7343602,7.26942053 66.9567536,8.3481992 C65.3808847,9.30637934 60.3605931,11.3268178 62.7070338,10.8262513 C57.5478408,12.0718855 50.5895447,13.1622284 47.108743,16.8842626 C45.6916186,18.4024825 44.2728405,19.9207024 42.8540624,21.4372703 C41.6320613,22.7456818 37.2897406,26.1406131 39.4609009,25.0089694 C34.8705421,27.5679711 28.2991854,30.5432857 26.004006,34.9723908 C25.0465788,36.8177135 24.0908053,38.6613843 23.1333781,40.505055 C22.3264274,42.0596197 19.0407491,46.6027152 20.8762312,44.8895552 C17.1589665,48.5686365 11.5003902,53.3050201 10.5016233,58.1025289 C10.0783049,60.1361836 9.65498652,62.1698384 9.23166812,64.2034931 C8.87614681,65.911697 6.93979587,71.2461171 8.28912326,69.0373467 C5.68637656,73.6002666 1.44823183,79.7920927 1.78225651,84.6606391 C1.92446503,86.7322906 2.06667355,88.8039421 2.20888208,90.8755937 C2.32794038,92.653183 1.90792916,98.2717531 2.6156646,95.790397 C1.32917354,100.893532 -1.07514267,108.046843 0.538758719,112.584982 C1.23491905,114.540991 1.93107938,116.498652 2.62723971,118.454661 C3.21757044,120.114956 4.34366352,125.624492 4.36516016,123.100183 C4.49083281,128.305744 4.10223975,135.872063 6.8174304,139.716348 C8.01628132,141.412988 9.21347866,143.109627 10.4139832,144.806267 C11.3895998,146.187368 14.0353398,151.259115 13.3722512,148.799235 C14.8753622,153.712386 16.5372176,161.229144 20.1255025,164.144986 C22.6869095,166.226549 25.2466629,168.306461 27.8080699,170.388025 C27.7320049,170.350028 29.65182,172.035103 30.5679074,173.330299 C32.0147965,175.380474 33.4633391,177.430649 34.9118818,179.480824 C38.2918146,184.263464 42.8325658,185.570224 47.9768765,187.802123 C48.6829583,188.109401 49.3890402,188.415028 50.095122,188.722306 C50.3282779,188.82308 50.47214,188.870989 50.576316,188.89577 C52.2514001,190.257046 53.9264842,191.616671 55.5982612,192.976296 C59.6760079,196.290277 63.0377513,198.12734 68.2267088,198.841019 C70.4904701,199.151601 72.7542313,199.462184 75.0196462,199.772766 C75.3487101,199.819023 75.5388727,199.823979 75.6314735,199.804155 C76.178811,200.042048 76.7278021,200.279941 77.2767931,200.517834 C82.9767092,202.99093 87.7820344,205.713483 94.2128361,204.829645 C97.139686,204.4282 100.071497,204.026756 103,203.623659 L103,197.269934" id="Fill-1" fill="#1A1918"></path>
                    <path d="M14,102.500828 C14,51.4127194 55.4110633,10 106.497516,10 C157.585624,10 199,51.4127194 199,102.500828 C199,153.587281 157.585624,195 106.497516,195 C55.4110633,195 14,153.587281 14,102.500828" id="Fill-2" fill="#1A1918"></path>
                    <path d="M107,6 C107.334,6 107.668,6 108,6.004" id="Stroke-3" stroke="#1A1918" stroke-linecap="round"></path>
                    <path d="M110.657627,6 C162.022544,8.16892999 203,50.532603 203,102.472681 C203,154.970721 161.139139,197.683741 109,199" id="Stroke-4" stroke="#1A1918" stroke-linecap="round" stroke-dasharray="1.001,2.002"></path>
                    <path d="M108,199 C107.668,199.004 107.334,199.004 107,199.004" id="Stroke-5" stroke="#1A1918" stroke-linecap="round"></path>
                    <path d="M107,2 C162.781572,2 208,46.9949441 208,102.500826 C208,158.005056 162.781572,203 107,203" id="Stroke-6" stroke="#1A1918"></path>
                    <path d="M73.1918612,115.789502 L95.0657152,93.893786 L96.2368514,95.0638239 L97.7032458,93.6000389 C97.7032458,93.6000389 99.7040741,88.2779343 106.86285,84.2017798 C108.047182,83.0053377 123.126797,67.9186152 123.126797,67.9186152 C123.141642,67.9186152 123.151539,67.8938613 123.163086,67.8938613 C124.284737,66.7700308 124.273191,64.9662912 123.163086,63.8408105 C122.05463,62.7186303 120.233596,62.7202805 119.12679,63.8424607 C119.111944,63.8655644 119.102047,63.8672147 119.090501,63.8903184 C119.090501,63.8903184 104.243464,78.7328016 102.861193,80.123975 C97.2397398,88.0815528 93.2859182,89.1822795 93.2859182,89.1822795 L91.8096269,90.6460645 L92.980763,91.8144521 L71.0805172,113.738222 C66.7753547,110.909668 59.6990533,112.521977 54.4388376,117.791273 C48.6441879,123.577102 47.2668658,131.587488 51.3394505,135.663643 C55.4169837,139.738147 63.4219466,138.345324 69.2034004,132.561145 C74.5213481,127.262144 76.1081551,120.088442 73.1918612,115.789502 L73.1918612,115.789502 Z M119.566274,65.5280568 C120.130892,64.8239811 121.031349,64.8239811 121.584235,65.5280568 C122.138588,66.2064631 122.138588,67.3450855 121.584235,68.0509947 C121.031349,68.729401 118.676083,70.5445962 118.124663,69.8405205 C117.57031,69.1364448 119.011921,66.2064631 119.566274,65.5280568 L119.566274,65.5280568 Z M69.1418921,116.574872 C68.8718079,116.579518 68.5762441,116.582616 68.2823789,116.579518 C66.8572176,116.635279 64.905477,116.715821 63.126998,117.189784 C62.7482007,117.296658 62.2776766,117.491819 61.8920847,117.705567 C61.3977797,117.967331 61.0104891,118.19347 60.6741578,118.419609 C59.8061514,118.972566 59.0961187,119.483702 58.552553,119.945274 C57.9410416,120.445568 57.4501338,120.856026 57.1579673,121.206077 C56.8352251,121.535992 56.5498532,121.887592 56.5447572,121.887592 C56.4530305,122.003759 56.279769,122.033188 56.1455762,121.96039 C56.0062875,121.892239 55.9638214,121.732702 56.0317671,121.605692 C56.0317671,121.605692 56.2101246,121.263386 56.4870034,120.759994 C56.7231147,120.3294 57.1290903,119.680412 57.7185194,119.025228 C58.2434,118.449038 58.9500354,117.70092 59.8061514,117.019405 C60.2562917,116.672452 60.6962402,116.368868 61.1565724,116.088518 C61.6780557,115.792678 62.1587716,115.572734 62.7312142,115.379122 C64.4315557,114.911355 66.2983641,114.877279 68.4301608,115.272248 C69.1367962,115.385318 69.7024442,115.603712 70.1169131,115.7617 L70.2222289,115.801971 C70.6333005,115.967703 70.8473295,116.148925 70.9033847,116.200038 C70.9101792,116.203136 70.9186725,116.213978 70.9186725,116.213978 C71.0120978,116.305363 71.025687,116.441666 70.9560426,116.546991 C70.883001,116.652316 70.7437123,116.698783 70.6112181,116.664708 C70.6112181,116.664708 70.3852986,116.604301 70.003104,116.582616 C69.7822804,116.56248 69.4850179,116.565578 69.1418921,116.574872 L69.1418921,116.574872 Z" id="Fill-7" fill="#FFFFFF"></path>
                    <path d="M166.593339,146.92982 C166.121864,146.92982 165.767025,146.531709 164.424881,143.983795 C162.417413,140.120454 161.428465,137.811407 159.535992,136.975373 L159.535992,136.776317 C162.612903,135.581983 164.899642,133.07388 164.899642,129.61031 C164.899642,126.823529 162.731183,124.355238 160.091249,123.638637 C158.197133,123.081281 156.933841,123 154.686529,123 C152.046595,123 149.283453,123.039811 147.07721,123.081281 C147.037784,123.678448 147.037784,124.313768 147.037784,124.912594 L149.758214,125.032028 L149.72043,146.810387 C149.72043,146.890009 149.679361,146.969631 149.559438,146.969631 L147.037784,147.089065 C147.037784,147.686232 147,148.32321 147,148.960189 C148.299432,148.920378 149.79764,148.920378 151.295848,148.920378 L156.066458,148.920378 C156.105884,148.32321 156.105884,147.646421 156.105884,147.089065 L152.794056,146.92982 L152.794056,137.930841 C152.951762,137.89103 153.503734,137.851219 155.082437,137.851219 C157.012694,137.851219 157.840651,138.328952 158.749104,139.722343 C160.010753,141.674748 162.417413,147.128876 163.795699,149 C164.34767,149 165.609319,148.960189 166.360066,148.960189 C167.188023,148.920378 168.249253,148.920378 168.962216,148.920378 C169,148.32321 169,147.646421 169,147.049254 L166.593339,146.92982 L166.593339,146.92982 Z M155.131138,136 C153.964286,136 153.202567,136 153,135.92172 L153.080357,125.197331 C153.323103,125.079911 154.046317,125 155.370536,125 C159.30971,125 162,126.841216 162,130.520385 C162,132.868792 160.232143,136 155.131138,136 L155.131138,136 Z" id="Fill-8" fill="#FFFFFF"></path>
                    <path d="M52.6395361,70.6050359 L57.5565305,70.6050359 C57.7195159,70.6050359 57.884115,70.5966799 58.0487141,70.5833101 L64.5019667,81 L66.5094302,81 L59.8302572,70.3292853 C61.4843167,69.9164949 62.9511851,69.0474625 64.2357035,67.7188457 C66.0785678,65.8086458 67,63.4973539 67,60.7816278 C67,58.0926411 66.0785678,55.7863629 64.2357035,53.8644644 C62.6913767,52.2651106 60.8130106,51.3108462 58.6006051,51 L51,51 L51,81 L52.6395361,81 L52.6395361,70.6050359 L52.6395361,70.6050359 Z M53,53 L58.0242263,53 C60.2156266,53 62.0920852,53.7773413 63.6552511,55.332024 C65.218417,56.8850527 66,58.7672111 66,60.980153 C66,63.2046723 65.218417,65.0984081 63.6552511,66.6580525 C62.0920852,68.2210048 60.2156266,69 58.0242263,69 L53,69 L53,53 L53,53 Z" id="Fill-9" fill="#FFFFFF"></path>
                    <path d="M69.4156335,155.415633 C67.6699728,157.16956 66.0168851,159.017712 64.8531113,160.477388 C63.6794191,161.928799 63,163 63,163 C63,163 64.0712009,162.320581 65.5226119,161.146889 C66.9822883,159.981462 68.8304404,158.328374 70.5843665,156.584367 C72.3316802,154.83044 73.984768,152.983941 75.1485417,151.522612 C76.322234,150.071201 77,149 77,149 C77,149 75.9271461,149.677766 74.4773881,150.851458 C73.0160586,152.015232 71.1695596,153.669973 69.4156335,155.415633" id="Fill-10" fill="#FFFFFF"></path>
                    <path d="M141.583609,46.5843665 C143.331129,44.8304404 144.984412,42.9855945 146.148323,41.524265 C147.322154,40.0728539 148,39 148,39 C148,39 146.928673,39.6794191 145.47709,40.8531113 C144.015588,42.0168851 142.168871,43.6699728 140.414738,45.4156335 C138.670524,47.1712127 137.017241,49.0177117 135.85333,50.4790412 C134.679499,51.9304522 134,53 134,53 C134,53 135.069674,52.3205809 136.521256,51.1468887 C137.982759,49.9831149 139.829476,48.3300272 141.583609,46.5843665" id="Fill-11" fill="#FFFFFF"></path>
                    <path d="M139.969246,78.1848506 C133.923935,84.2739845 120.28446,98.0123333 118.81808,99.4843586 L118.682823,99.6239185 L117.077888,101.242149 C117.077888,101.242149 115.779754,105.975558 106.308492,112.709326 C104.673867,114.35414 87.0410224,132.114806 87.0410224,132.114806 L87.0459708,132.11979 C87.0278267,132.136405 87.008033,132.148035 86.9931878,132.164649 C85.6686626,133.498776 85.6686626,135.666939 86.9948373,137.001066 C88.3160635,138.333531 90.468623,138.333531 91.7931482,136.997743 C91.8079934,136.98279 91.8178903,136.961192 91.834385,136.946239 L91.8409828,136.949562 C91.8409828,136.949562 109.742691,118.918083 111.154638,117.497562 C115.989237,108.919609 122.319907,106.525491 122.319907,106.525491 L123.928141,104.905598 L130.07242,111.091095 C130.070771,111.091095 139.281416,101.813681 145.148584,95.9023196 C146.708984,94.3306087 161,64.1474448 161,64.1474448 C160.998351,64.1474448 156.485398,61.5473099 139.969246,78.1848506" id="Fill-12" fill="#FFFFFF"></path>
                </g>
            </g>
        </g>
    </g>
</svg>