<?xml version="1.0" encoding="utf-8"?>
<!-- Generator: Adobe Illustrator 16.0.0, SVG Export Plug-In . SVG Version: 6.00 Build 0)  -->
<!DOCTYPE svg PUBLIC "-//W3C//DTD SVG 1.1//EN" "http://www.w3.org/Graphics/SVG/1.1/DTD/svg11.dtd">
<svg version="1.1" id="Layer_1" xmlns="http://www.w3.org/2000/svg" xmlns:xlink="http://www.w3.org/1999/xlink" x="0px" y="0px"
	 width="230px" height="230px" viewBox="0 0 230 230" enable-background="new 0 0 230 230" xml:space="preserve">
<path d="M114.439,218.521c-57.416,0-103.959-46.545-103.959-103.96c0-57.416,46.544-103.958,103.959-103.958v-8.49
	c-1.888-0.046-3.616,0.311-5.15,0.985c-1.672,0.468-3.343,0.937-5.014,1.405c-2.016,0.564-7.761,1.156-5.253,1.315
	c-5.88-0.21-13.396-1.05-18.246,1.899c-1.947,1.184-3.894,2.368-5.84,3.551c-1.728,1.05-7.23,3.267-4.658,2.719
	c-5.655,1.365-13.281,2.562-17.095,6.645c-1.554,1.666-3.11,3.331-4.664,4.996c-1.339,1.433-6.099,5.159-3.718,3.918
	c-5.032,2.805-12.233,6.071-14.75,10.931c-1.05,2.021-2.098,4.046-3.146,6.067c-0.885,1.706-4.486,6.69-2.474,4.811
	c-4.074,4.035-10.275,9.231-11.371,14.495c-0.464,2.23-0.927,4.462-1.391,6.694c-0.389,1.872-2.512,7.725-1.033,5.302
	c-2.854,5.007-7.498,11.798-7.131,17.138c0.156,2.272,0.311,4.547,0.467,6.821c0.131,1.948-0.329,8.113,0.446,5.391
	c-1.411,5.596-4.046,13.444-2.276,18.422c0.763,2.146,1.526,4.294,2.289,6.44c0.648,1.819,1.881,7.865,1.904,5.098
	c0.138,5.709-0.288,14.01,2.688,18.226c1.313,1.862,2.626,3.724,3.942,5.585c1.068,1.516,3.97,7.08,3.242,4.381
	c1.647,5.39,3.469,13.635,7.401,16.833c2.807,2.283,5.612,4.566,8.419,6.849c-0.083-0.041,2.021,1.808,3.024,3.229
	c1.587,2.248,3.175,4.5,4.763,6.747c3.705,5.248,8.68,6.68,14.318,9.13c0.773,0.336,1.548,0.672,2.322,1.009
	c0.255,0.111,0.412,0.162,0.527,0.19c1.835,1.493,3.671,2.986,5.504,4.478c4.469,3.635,8.154,5.649,13.84,6.432
	c2.482,0.342,4.963,0.684,7.446,1.023c0.359,0.049,0.568,0.056,0.671,0.035c0.6,0.26,1.2,0.521,1.801,0.781
	c6.248,2.714,11.515,5.7,18.562,4.732c3.208-0.441,6.421-0.884,9.631-1.324V218.521z"/>
<circle cx="117.773" cy="114.507" r="101.221"/>
<g>
	<g>
		<path fill="none" stroke="#000000" stroke-linecap="round" stroke-miterlimit="10" d="M117.771,8.812c0.167,0,0.333,0,0.5,0.001"
			/>
		<path fill="none" stroke="#000000" stroke-linecap="round" stroke-miterlimit="10" stroke-dasharray="0.9972,1.9944" d="
			M120.266,8.84c57.223,1.325,103.203,48.126,103.203,105.667c0,57.874-46.515,104.885-104.199,105.686"/>
		<path fill="none" stroke="#000000" stroke-linecap="round" stroke-miterlimit="10" d="M118.271,220.202
			c-0.167,0.001-0.333,0.001-0.5,0.001"/>
	</g>
</g>
<path fill="none" stroke="#000000" stroke-miterlimit="10" d="M117.771,4.281C178.649,4.281,228,53.63,228,114.507
	s-49.351,110.228-110.229,110.228"/>
<text transform="matrix(1 0 0 1 159.5156 165.6943)" fill="#FFFFFF" font-family="'ProximaNova-Regular'" font-size="43.4959">R</text>
<text transform="matrix(1 0 0 1 54.1553 90.6802)" fill="#FFFFFF" font-family="'ProximaNova-Light'" font-size="43.4959">R</text>
<path fill="#FFFFFF" d="M80.738,129.653l24.033-24.044l1.287,1.285l1.611-1.606c0,0,2.198-5.848,10.062-10.322
	c1.303-1.315,17.871-17.882,17.871-17.882c0.016,0,0.025-0.029,0.04-0.029c1.232-1.233,1.22-3.214,0-4.451
	c-1.22-1.232-3.22-1.23-4.436,0.002c-0.015,0.026-0.027,0.028-0.04,0.053c0,0-16.312,16.3-17.832,17.83
	c-6.176,8.738-10.52,9.946-10.52,9.946l-1.623,1.607l1.286,1.285l-24.061,24.076c-4.731-3.106-12.506-1.336-18.285,4.451
	c-6.368,6.354-7.881,15.151-3.405,19.627c4.479,4.475,13.274,2.945,19.626-3.406C82.198,142.253,83.941,134.375,80.738,129.653z
	 M131.996,73.973c0.699-0.697,1.811-0.697,2.494,0c0.685,0.669,0.685,1.795,0,2.494c-0.684,0.669-3.594,2.464-4.275,1.769
	C129.531,77.539,131.311,74.642,131.996,73.973z M75.368,130.443c-0.287,0.005-0.603,0.011-0.917,0.005
	c-1.52,0.066-3.603,0.162-5.5,0.714c-0.403,0.128-0.906,0.356-1.316,0.604c-0.528,0.308-0.94,0.57-1.299,0.836
	c-0.926,0.648-1.685,1.246-2.264,1.784c-0.653,0.587-1.177,1.067-1.488,1.476c-0.345,0.387-0.649,0.799-0.655,0.799
	c-0.097,0.137-0.282,0.171-0.425,0.085c-0.149-0.08-0.195-0.268-0.122-0.416c0,0,0.191-0.399,0.486-0.989
	c0.251-0.504,0.686-1.263,1.313-2.03c0.559-0.673,1.313-1.549,2.228-2.347c0.479-0.407,0.949-0.762,1.441-1.089
	c0.556-0.346,1.069-0.604,1.68-0.83c1.814-0.548,3.805-0.588,6.08-0.125c0.754,0.133,1.357,0.388,1.8,0.573l0.113,0.046
	c0.437,0.197,0.666,0.407,0.726,0.467c0.007,0.002,0.016,0.017,0.016,0.017c0.101,0.105,0.114,0.266,0.041,0.39
	c-0.078,0.123-0.227,0.177-0.369,0.138c0,0-0.24-0.071-0.647-0.096C76.051,130.429,75.734,130.433,75.368,130.443z"/>
<path fill="#FFFFFF" d="M76.472,172.794c-1.914,1.925-3.726,3.949-5.002,5.551c-1.286,1.591-2.031,2.765-2.031,2.765
	s1.173-0.745,2.764-2.032c1.602-1.275,3.626-3.089,5.551-5.001c1.915-1.925,3.727-3.947,5.003-5.549
	c1.287-1.592,2.03-2.767,2.03-2.767s-1.175,0.743-2.766,2.03C80.419,169.067,78.394,170.882,76.472,172.794z"/>
<path fill="#FFFFFF" d="M155.351,53.432c1.916-1.922,3.728-3.947,5.004-5.548c1.286-1.591,2.029-2.766,2.029-2.766
	s-1.175,0.743-2.766,2.03c-1.602,1.276-3.627,3.088-5.548,5.003c-1.914,1.924-3.727,3.95-5.002,5.55
	c-1.287,1.591-2.032,2.764-2.032,2.764s1.174-0.745,2.765-2.031C151.402,57.156,153.427,55.345,155.351,53.432z"/>
<path fill="#FFFFFF" d="M154.657,87.978c-6.643,6.64-21.628,21.625-23.238,23.232l-0.148,0.15l-1.765,1.766
	c0,0-1.426,5.163-11.831,12.51c-1.797,1.795-21.171,21.167-21.171,21.167l0.005,0.007c-0.019,0.019-0.041,0.029-0.057,0.047
	c-1.456,1.457-1.456,3.82,0.002,5.277c1.452,1.453,3.816,1.453,5.271-0.004c0.018-0.018,0.028-0.039,0.046-0.056l0.007,0.003
	c0,0,19.671-19.67,21.221-21.22c5.313-9.356,12.269-11.969,12.269-11.969l1.767-1.766l6.75,6.746c0,0,10.118-10.12,16.566-16.567
	c1.712-1.715,17.414-34.64,17.414-34.64S172.805,69.828,154.657,87.978z"/>
</svg>
