<?xml version="1.0" encoding="utf-8"?>
<!-- Generator: Adobe Illustrator 16.0.0, SVG Export Plug-In . SVG Version: 6.00 Build 0)  -->
<!DOCTYPE svg PUBLIC "-//W3C//DTD SVG 1.1//EN" "http://www.w3.org/Graphics/SVG/1.1/DTD/svg11.dtd">
<svg version="1.1" id="Layer_1" xmlns="http://www.w3.org/2000/svg" xmlns:xlink="http://www.w3.org/1999/xlink" x="0px" y="0px"
	 width="112px" height="42px" viewBox="0 0 112 42" enable-background="new 0 0 112 42" xml:space="preserve">
<path fill="#FFFFFF" d="M64.206,0.688c-0.609-0.615-1.606-0.614-2.213,0c-0.009,0.013-0.015,0.014-0.021,0.026
	c0,0-8.14,8.135-8.898,8.897c-3.083,4.36-5.25,4.964-5.25,4.964l-0.81,0.802l0.642,0.641L35.649,28.033
	c-2.361-1.55-6.241-0.666-9.125,2.221c-3.177,3.172-3.933,7.562-1.699,9.795c2.236,2.232,6.624,1.471,9.793-1.699
	c2.917-2.903,3.787-6.836,2.188-9.192l11.993-11.999l0.643,0.641l0.804-0.802c0,0,1.097-2.917,5.022-5.15
	c0.65-0.657,8.918-8.924,8.918-8.924c0.008,0,0.013-0.013,0.021-0.013C64.82,2.294,64.814,1.305,64.206,0.688z M34.909,29.604
	c0,0-0.12-0.035-0.323-0.048c-0.119-0.012-0.276-0.009-0.459-0.004c-0.143,0.002-0.301,0.004-0.458,0.002
	c-0.758,0.032-1.798,0.08-2.745,0.356c-0.202,0.062-0.452,0.177-0.657,0.3c-0.263,0.154-0.469,0.286-0.648,0.418
	c-0.462,0.323-0.841,0.622-1.129,0.891c-0.326,0.293-0.587,0.533-0.743,0.737c-0.173,0.19-0.324,0.397-0.327,0.397
	c-0.048,0.068-0.14,0.085-0.212,0.043c-0.074-0.041-0.097-0.133-0.061-0.208c0,0,0.096-0.199,0.243-0.492
	c0.126-0.253,0.342-0.633,0.656-1.016c0.278-0.334,0.655-0.772,1.111-1.169c0.239-0.204,0.473-0.382,0.719-0.544
	c0.277-0.173,0.533-0.302,0.838-0.414c0.905-0.273,1.899-0.294,3.034-0.062c0.375,0.065,0.677,0.193,0.898,0.286l0.056,0.022
	c0.218,0.097,0.333,0.204,0.362,0.233c0.004,0,0.008,0.007,0.008,0.007c0.05,0.055,0.058,0.133,0.02,0.193
	C35.054,29.598,34.98,29.624,34.909,29.604z M63.631,2.615c-0.341,0.334-1.793,1.23-2.134,0.883
	c-0.341-0.348,0.548-1.792,0.889-2.127c0.35-0.348,0.904-0.348,1.245,0C63.973,1.706,63.973,2.267,63.631,2.615z"/>
<g>
	<line x1="69.889" y1="41.331" x2="110.013" y2="1.208"/>
	<path fill="#FFFFFF" d="M69.889,41.331c0,0,0.602-0.651,1.655-1.793c1.069-1.125,2.567-2.762,4.416-4.675
		c1.852-1.909,3.98-4.169,6.318-6.533c2.336-2.366,4.827-4.89,7.319-7.414c2.523-2.492,5.047-4.984,7.413-7.32
		c2.362-2.339,4.624-4.467,6.533-6.318c1.913-1.85,3.55-3.347,4.676-4.415c1.141-1.053,1.793-1.655,1.793-1.655
		s-0.602,0.652-1.655,1.793c-1.068,1.125-2.565,2.763-4.415,4.675c-1.852,1.91-3.979,4.171-6.318,6.534
		c-2.336,2.366-4.828,4.889-7.32,7.413c-2.523,2.492-5.048,4.984-7.413,7.32c-2.365,2.337-4.624,4.466-6.534,6.317
		c-1.913,1.849-3.55,3.347-4.675,4.416C70.54,40.729,69.889,41.331,69.889,41.331z"/>
</g>
<g>
	<line x1="3.479" y1="41.331" x2="43.603" y2="1.208"/>
	<path fill="#FFFFFF" d="M3.479,41.331c0,0,0.602-0.651,1.656-1.793c1.068-1.125,2.566-2.762,4.416-4.675
		c1.852-1.909,3.98-4.169,6.318-6.533c2.336-2.366,4.828-4.89,7.319-7.414c2.523-2.492,5.047-4.984,7.413-7.32
		c2.363-2.339,4.624-4.467,6.534-6.318c1.912-1.85,3.55-3.347,4.675-4.415c1.141-1.053,1.793-1.655,1.793-1.655
		s-0.602,0.652-1.655,1.793c-1.068,1.125-2.566,2.763-4.415,4.675c-1.852,1.91-3.979,4.171-6.318,6.534
		c-2.336,2.366-4.828,4.889-7.32,7.413c-2.524,2.492-5.047,4.984-7.414,7.32c-2.364,2.337-4.624,4.466-6.534,6.317
		c-1.913,1.849-3.549,3.347-4.675,4.416C4.131,40.729,3.479,41.331,3.479,41.331z"/>
</g>
<path fill="#FFFFFF" d="M85.227,0.718c0,0-7.836,16.43-8.692,17.286c-3.216,3.218-8.267,8.268-8.267,8.268l-3.368-3.367
	l-0.881,0.883c0,0-3.471,1.303-6.122,5.973c-0.774,0.771-10.59,10.588-10.59,10.588l-0.003-0.002
	c-0.009,0.008-0.014,0.021-0.023,0.028c-0.726,0.728-1.906,0.728-2.63,0.002c-0.728-0.727-0.728-1.906-0.001-2.633
	c0.007-0.009,0.019-0.016,0.028-0.023l-0.002-0.003c0,0,9.668-9.668,10.565-10.563c5.192-3.667,5.905-6.243,5.905-6.243l0.879-0.881
	l0.075-0.076c0.804-0.802,8.281-8.28,11.596-11.594C82.751-0.698,85.227,0.718,85.227,0.718z"/>
</svg>
