<?xml version="1.0" encoding="utf-8"?>
<!-- Generator: Adobe Illustrator 16.0.0, SVG Export Plug-In . SVG Version: 6.00 Build 0)  -->
<!DOCTYPE svg PUBLIC "-//W3C//DTD SVG 1.1//EN" "http://www.w3.org/Graphics/SVG/1.1/DTD/svg11.dtd">
<svg version="1.1" id="Layer_1" xmlns="http://www.w3.org/2000/svg" xmlns:xlink="http://www.w3.org/1999/xlink" x="0px" y="0px"
	 width="140px" height="140px" viewBox="0 0 140 140" enable-background="new 0 0 140 140" xml:space="preserve">
<path d="M82.565,44.727c-0.735-0.742-1.94-0.742-2.673,0c-0.01,0.016-0.017,0.017-0.024,0.032c0,0-9.83,9.823-10.745,10.743
	c-3.722,5.266-6.339,5.995-6.339,5.995l-0.978,0.968l0.775,0.773L48.083,77.747c-2.851-1.871-7.536-0.805-11.018,2.683
	c-3.837,3.829-4.749,9.13-2.052,11.828c2.699,2.696,7.999,1.774,11.826-2.055c3.521-3.506,4.572-8.254,2.642-11.098l14.482-14.49
	l0.775,0.774l0.971-0.969c0,0,1.325-3.522,6.064-6.219c0.785-0.792,10.769-10.776,10.769-10.776c0.01,0,0.016-0.016,0.024-0.016
	C83.308,46.666,83.3,45.472,82.565,44.727z M47.19,79.646c0,0-0.145-0.043-0.391-0.058c-0.143-0.016-0.333-0.013-0.554-0.007
	c-0.173,0.002-0.364,0.007-0.553,0.002c-0.916,0.041-2.171,0.099-3.314,0.432c-0.243,0.075-0.546,0.213-0.793,0.363
	c-0.318,0.185-0.566,0.345-0.783,0.503c-0.558,0.392-1.016,0.752-1.364,1.076c-0.394,0.354-0.709,0.643-0.897,0.89
	c-0.208,0.232-0.391,0.48-0.395,0.48c-0.059,0.082-0.169,0.104-0.256,0.051c-0.09-0.048-0.118-0.16-0.074-0.25
	c0,0,0.115-0.24,0.293-0.597c0.151-0.303,0.413-0.761,0.791-1.223c0.337-0.406,0.792-0.934,1.343-1.414
	c0.289-0.245,0.572-0.458,0.868-0.656c0.335-0.209,0.644-0.363,1.012-0.5c1.093-0.33,2.293-0.354,3.664-0.076
	c0.454,0.081,0.818,0.234,1.084,0.346l0.068,0.027c0.263,0.118,0.401,0.245,0.437,0.281c0.004,0.003,0.01,0.01,0.01,0.01
	c0.061,0.065,0.069,0.161,0.024,0.236C47.365,79.636,47.275,79.669,47.19,79.646z M81.871,47.054
	c-0.412,0.404-2.165,1.486-2.575,1.066c-0.413-0.419,0.66-2.165,1.072-2.568c0.422-0.42,1.091-0.42,1.503,0
	C82.284,45.955,82.284,46.634,81.871,47.054z"/>
<text transform="matrix(1 0 0 1 96.9512 100.8623)" font-family="'ProximaNova-Regular'" font-size="26.2101">R</text>
<text transform="matrix(1 0 0 1 33.4624 55.6597)" font-family="'ProximaNova-Light'" font-size="26.2101">R</text>
<path d="M69.789,132.654c-34.598,0-62.645-28.047-62.645-62.644c0-34.598,28.047-62.645,62.645-62.645V2.25
	c-1.138-0.028-2.179,0.187-3.104,0.593c-1.008,0.282-2.014,0.565-3.021,0.847c-1.215,0.34-4.677,0.696-3.166,0.792
	c-3.543-0.126-8.072-0.633-10.995,1.145c-1.173,0.713-2.346,1.426-3.519,2.14c-1.041,0.633-4.357,1.969-2.807,1.638
	c-3.408,0.823-8.003,1.544-10.301,4.005c-0.937,1.003-1.874,2.007-2.81,3.01c-0.808,0.864-3.675,3.109-2.241,2.361
	c-3.032,1.691-7.372,3.658-8.888,6.586c-0.632,1.219-1.264,2.438-1.896,3.657c-0.533,1.027-2.703,4.031-1.491,2.898
	c-2.455,2.432-6.192,5.562-6.852,8.735c-0.28,1.344-0.559,2.688-0.838,4.032c-0.235,1.129-1.513,4.656-0.623,3.196
	c-1.719,3.017-4.518,7.109-4.297,10.327c0.094,1.37,0.188,2.739,0.282,4.109c0.079,1.175-0.198,4.889,0.269,3.249
	c-0.85,3.373-2.438,8.102-1.371,11.101c0.459,1.295,0.919,2.587,1.379,3.882c0.39,1.097,1.133,4.738,1.147,3.07
	c0.083,3.44-0.174,8.443,1.62,10.984c0.791,1.122,1.583,2.243,2.375,3.364c0.644,0.914,2.392,4.267,1.954,2.64
	c0.993,3.248,2.09,8.217,4.46,10.145c1.691,1.376,3.382,2.752,5.073,4.127c-0.05-0.025,1.218,1.088,1.823,1.945
	c0.957,1.354,1.914,2.71,2.87,4.065c2.232,3.161,5.23,4.025,8.628,5.501c0.466,0.203,0.933,0.405,1.399,0.608
	c0.154,0.066,0.249,0.098,0.318,0.115c1.106,0.899,2.212,1.798,3.317,2.698c2.693,2.19,4.914,3.404,8.34,3.876
	c1.496,0.204,2.991,0.411,4.487,0.616c0.217,0.029,0.342,0.034,0.404,0.021c0.361,0.156,0.723,0.314,1.086,0.472
	c3.765,1.634,6.938,3.435,11.185,2.85c1.934-0.266,3.869-0.53,5.804-0.798V132.654z"/>
<circle fill="none" cx="70.705" cy="69.978" r="67.787"/>
<g>
	<g>
		<path fill="none" stroke="#000000" stroke-linecap="round" stroke-miterlimit="10" d="M71.797,6.287c0.167,0,0.334,0,0.5,0.002"/>
		<path fill="none" stroke="#000000" stroke-linecap="round" stroke-miterlimit="10" stroke-dasharray="0.9954,1.9907" d="
			M74.287,6.334c34.021,1.308,61.202,29.302,61.202,63.644c0,34.678-27.716,62.884-62.205,63.675"/>
		<path fill="none" stroke="#000000" stroke-linecap="round" stroke-miterlimit="10" d="M72.297,133.668
			c-0.166,0.001-0.333,0.002-0.5,0.002"/>
	</g>
</g>
<path fill="none" stroke="#000000" stroke-miterlimit="10" d="M71.797,3.556c36.685,0,66.422,29.738,66.422,66.422
	c0,36.683-29.737,66.421-66.422,66.421"/>
<g>
	<line fill="#FFFFFF" x1="41.58" y1="110.11" x2="50.829" y2="100.862"/>
	<path d="M41.58,110.11c0,0,0.46-0.696,1.243-1.647c0.777-0.956,1.875-2.171,3.028-3.33c1.158-1.153,2.373-2.251,3.33-3.028
		c0.951-0.783,1.648-1.242,1.648-1.242s-0.459,0.697-1.242,1.648c-0.777,0.956-1.875,2.171-3.029,3.329
		c-1.159,1.153-2.374,2.25-3.331,3.027C42.276,109.65,41.58,110.11,41.58,110.11z"/>
</g>
<g>
	<line fill="#FFFFFF" x1="89.432" y1="37.413" x2="98.68" y2="28.164"/>
	<path d="M89.432,37.413c0,0,0.46-0.696,1.243-1.647c0.777-0.957,1.874-2.172,3.027-3.331c1.158-1.154,2.373-2.252,3.329-3.029
		c0.951-0.783,1.648-1.242,1.648-1.242s-0.459,0.697-1.242,1.648c-0.777,0.957-1.875,2.171-3.028,3.33
		c-1.159,1.153-2.374,2.25-3.33,3.028C90.128,36.953,89.432,37.413,89.432,37.413z"/>
</g>
<path d="M107.948,44.764c0,0-9.462,19.839-10.495,20.873c-3.885,3.886-9.981,9.984-9.981,9.984l-4.068-4.065l-1.064,1.064
	c0,0-4.19,1.573-7.393,7.212c-0.935,0.934-12.787,12.787-12.787,12.787l-0.004-0.003c-0.011,0.011-0.017,0.024-0.028,0.035
	c-0.876,0.876-2.301,0.876-3.176,0.001c-0.879-0.878-0.879-2.303-0.001-3.18c0.009-0.011,0.022-0.018,0.034-0.028l-0.003-0.004
	c0,0,11.675-11.674,12.757-12.756c6.27-4.427,7.13-7.538,7.13-7.538l1.062-1.063l0.09-0.091c0.971-0.968,10.001-9.999,14.003-14
	C104.96,43.054,107.948,44.764,107.948,44.764z"/>
</svg>
